<svg xmlns="http://www.w3.org/2000/svg" version="1.1" xmlns:xlink="http://www.w3.org/1999/xlink" xmlns:svgjs="http://svgjs.com/svgjs" width="1440" height="560" preserveAspectRatio="none" viewBox="0 0 1440 560"><g mask="url(&quot;#SvgjsMask1000&quot;)" fill="none"><rect width="1440" height="560" x="0" y="0" fill="#0e2a47"></rect><path d="M46.46 449.63L46.47 449.63L46.47 449.64L46.46 449.64z" fill="#d3b714"></path><path d="M575.77 114.67a36.79 36.79 0 1 0-71.77-16.25z" stroke="#e73635"></path><path d="M271.08 228.55 a0.77 0.77 0 1 0 1.54 0 a0.77 0.77 0 1 0 -1.54 0z" fill="#037b0b"></path><path d="M547.46 103.42L562.7 103.42L562.7 111.44L547.46 111.44z" stroke="#d3b714"></path><path d="M735.49 336.03 a35.51 35.51 0 1 0 71.02 0 a35.51 35.51 0 1 0 -71.02 0z" stroke="#d3b714"></path><path d="M913.22 418.47a47.76 47.76 0 1 0 20.97 93.19z" stroke="#e73635"></path><path d="M279.94 339.31L296.63 339.31L296.63 344.89L279.94 344.89z" stroke="#037b0b"></path><path d="M229.97 409.57L254.04 409.57L254.04 433.64L229.97 433.64z" fill="#e73635"></path><path d="M522.34 479.17 a1.51 1.51 0 1 0 3.02 0 a1.51 1.51 0 1 0 -3.02 0z" stroke="#d3b714"></path><path d="M915.97 536.95 a33.81 33.81 0 1 0 67.62 0 a33.81 33.81 0 1 0 -67.62 0z" fill="#d3b714"></path><path d="M595.9 408.79 a16.31 16.31 0 1 0 32.62 0 a16.31 16.31 0 1 0 -32.62 0z" stroke="#d3b714"></path><path d="M691.8 373.87L741.48 373.87L741.48 383.67L691.8 383.67z" fill="#037b0b"></path><path d="M785.9 343.6a9.23 9.23 0 1 0 17.36 6.28z" stroke="#d3b714"></path><path d="M1358.24 524.2 a41.19 41.19 0 1 0 82.38 0 a41.19 41.19 0 1 0 -82.38 0z" stroke="#d3b714"></path><path d="M450.33 196.09L453.9 196.09L453.9 199.66L450.33 199.66z" fill="#d3b714"></path><path d="M1302.41 359.18L1310.3 359.18L1310.3 367.07L1302.41 367.07z" fill="#037b0b"></path><path d="M1329.9 96.7 a35.55 35.55 0 1 0 71.1 0 a35.55 35.55 0 1 0 -71.1 0z" stroke="#d3b714"></path><path d="M434.24 88.46L484.41 88.46L484.41 138.63L434.24 138.63z" stroke="#d3b714"></path><path d="M1353.94 491.39L1381.2 491.39L1381.2 539.17L1353.94 539.17z" stroke="#037b0b"></path><path d="M247.8 186.46 a51.63 51.63 0 1 0 103.26 0 a51.63 51.63 0 1 0 -103.26 0z" stroke="#d3b714"></path><path d="M514.09 140.66L542.35 140.66L542.35 168.92L514.09 168.92z" stroke="#e73635"></path><path d="M689.17 35.22L692.53 35.22L692.53 63.98L689.17 63.98z" stroke="#d3b714"></path><path d="M1184.19 338.61L1195.97 338.61L1195.97 361.22L1184.19 361.22z" fill="#037b0b"></path><path d="M532.16 158.58L537.15 158.58L537.15 163.57L532.16 163.57z" fill="#037b0b"></path><path d="M487.06 243.22 a30.01 30.01 0 1 0 60.02 0 a30.01 30.01 0 1 0 -60.02 0z" stroke="#e73635"></path><path d="M226.89 547.17a47.54 47.54 0 1 0 94.66 8.98z" fill="#d3b714"></path><path d="M39.22 470.28L46.72 470.28L46.72 477.78L39.22 477.78z" fill="#037b0b"></path><path d="M675.23 343.4L678.91 343.4L678.91 358.59L675.23 358.59z" stroke="#d3b714"></path><path d="M341.93 554.17L367.68 554.17L367.68 601.9L341.93 601.9z" stroke="#d3b714"></path><path d="M431.4 265.89L459.91 265.89L459.91 294.4L431.4 294.4z" stroke="#037b0b"></path><path d="M87.69 154.91 a25.74 25.74 0 1 0 51.48 0 a25.74 25.74 0 1 0 -51.48 0z" fill="#d3b714"></path><path d="M725.51 535.1L749.27 535.1L749.27 558.86L725.51 558.86z" stroke="#037b0b"></path><path d="M541.01 155.1 a55.73 55.73 0 1 0 111.46 0 a55.73 55.73 0 1 0 -111.46 0z" stroke="#037b0b"></path></g><defs><mask id="SvgjsMask1000"><rect width="1440" height="560" fill="#ffffff"></rect></mask></defs></svg>